<?xml version="1.0" encoding="UTF-8"?>
<!DOCTYPE svg PUBLIC "-//W3C//DTD SVG 1.1//EN" "http://www.w3.org/Graphics/SVG/1.1/DTD/svg11.dtd">
<svg xmlns="http://www.w3.org/2000/svg" version="1.1" width="169px" height="211px" style="shape-rendering:geometricPrecision; text-rendering:geometricPrecision; image-rendering:optimizeQuality; fill-rule:evenodd; clip-rule:evenodd" xmlns:xlink="http://www.w3.org/1999/xlink">
<g><path style="opacity:1" fill="#fdfdfd" d="M -0.5,-0.5 C 9.5,-0.5 19.5,-0.5 29.5,-0.5C 27.7459,3.25759 27.0792,7.25759 27.5,11.5C 21.1667,11.5 14.8333,11.5 8.5,11.5C 8.16752,77.6688 8.50085,143.669 9.5,209.5C 9.5,209.833 9.5,210.167 9.5,210.5C 6.16667,210.5 2.83333,210.5 -0.5,210.5C -0.5,140.167 -0.5,69.8333 -0.5,-0.5 Z"/></g>
<g><path style="opacity:1" fill="#fbf7f7" d="M 139.5,-0.5 C 149.167,-0.5 158.833,-0.5 168.5,-0.5C 168.5,69.8333 168.5,140.167 168.5,210.5C 115.5,210.5 62.5,210.5 9.5,210.5C 9.5,210.167 9.5,209.833 9.5,209.5C 59.1667,209.5 108.833,209.5 158.5,209.5C 158.5,143.5 158.5,77.5 158.5,11.5C 153.025,10.5111 147.358,10.1778 141.5,10.5C 141.802,7.9407 141.468,5.60737 140.5,3.5C 140.167,2.16667 139.833,0.833333 139.5,-0.5 Z"/></g>
<g><path style="opacity:1" fill="#ba8282" d="M 140.5,3.5 C 141.468,5.60737 141.802,7.9407 141.5,10.5C 147.358,10.1778 153.025,10.5111 158.5,11.5C 152.5,11.5 146.5,11.5 140.5,11.5C 140.5,8.83333 140.5,6.16667 140.5,3.5 Z"/></g>
<g><path style="opacity:1" fill="#7e1c17" d="M 29.5,-0.5 C 30.1667,-0.5 30.8333,-0.5 31.5,-0.5C 33.2221,2.91959 33.8887,6.58626 33.5,10.5C 40.3134,11.4912 47.3134,11.8245 54.5,11.5C 54.5,9.16667 54.5,6.83333 54.5,4.5C 54.3915,2.4862 55.0582,0.819534 56.5,-0.5C 57.1667,-0.5 57.8333,-0.5 58.5,-0.5C 59.0264,3.31201 59.6931,6.97868 60.5,10.5C 67.3134,11.4912 74.3134,11.8245 81.5,11.5C 81.5,8.83333 81.5,6.16667 81.5,3.5C 81.8333,2.16667 82.1667,0.833333 82.5,-0.5C 83.1667,-0.5 83.8333,-0.5 84.5,-0.5C 86.3236,2.84616 86.9903,6.51282 86.5,10.5C 93.6476,11.4916 100.981,11.825 108.5,11.5C 108.5,8.83333 108.5,6.16667 108.5,3.5C 108.733,1.93819 109.4,0.60486 110.5,-0.5C 110.833,-0.5 111.167,-0.5 111.5,-0.5C 112.6,0.60486 113.267,1.93819 113.5,3.5C 113.5,6.16667 113.5,8.83333 113.5,11.5C 120.833,11.5 128.167,11.5 135.5,11.5C 135.5,9.16667 135.5,6.83333 135.5,4.5C 135.392,2.4862 136.058,0.819534 137.5,-0.5C 138.167,-0.5 138.833,-0.5 139.5,-0.5C 139.833,0.833333 140.167,2.16667 140.5,3.5C 140.5,6.16667 140.5,8.83333 140.5,11.5C 146.5,11.5 152.5,11.5 158.5,11.5C 158.5,77.5 158.5,143.5 158.5,209.5C 108.833,209.5 59.1667,209.5 9.5,209.5C 8.50085,143.669 8.16752,77.6688 8.5,11.5C 14.8333,11.5 21.1667,11.5 27.5,11.5C 27.0792,7.25759 27.7459,3.25759 29.5,-0.5 Z"/></g>
<g><path style="opacity:1" fill="#e5e6e9" d="M 154.5,16.5 C 154.5,79.5 154.5,142.5 154.5,205.5C 107.833,205.5 61.1667,205.5 14.5,205.5C 14.5,142.5 14.5,79.5 14.5,16.5C 61.1667,16.5 107.833,16.5 154.5,16.5 Z"/></g>
<g><path style="opacity:1" fill="#667473" d="M 33.5,172.5 C 33.5,173.167 33.1667,173.5 32.5,173.5C 28.5,173.5 24.5,173.5 20.5,173.5C 20.1849,176.211 20.8516,178.544 22.5,180.5C 21.8333,180.5 21.5,180.833 21.5,181.5C 20.5386,183.265 20.2053,185.265 20.5,187.5C 21.8333,187.5 23.1667,187.5 24.5,187.5C 25.5,187.5 26.5,187.5 27.5,187.5C 29.5,187.5 31.5,187.5 33.5,187.5C 33.815,183.629 33.4816,179.962 32.5,176.5C 32.8333,175.5 33.5,174.833 34.5,174.5C 34.5,179.167 34.5,183.833 34.5,188.5C 29.1667,188.5 23.8333,188.5 18.5,188.5C 18.5,183.167 18.5,177.833 18.5,172.5C 23.5,172.5 28.5,172.5 33.5,172.5 Z"/></g>
<g><path style="opacity:1" fill="#262626" d="M 147.5,183.5 C 148.434,184.568 148.768,185.901 148.5,187.5C 111.996,187.832 75.6628,187.498 39.5,186.5C 75.5,186.5 111.5,186.5 147.5,186.5C 147.5,185.5 147.5,184.5 147.5,183.5 Z"/></g>
<g><path style="opacity:1" fill="#791513" d="M 33.5,172.5 C 35.6977,172.409 36.0311,173.075 34.5,174.5C 33.5,174.833 32.8333,175.5 32.5,176.5C 30.0245,179.785 28.3579,183.452 27.5,187.5C 26.5,187.5 25.5,187.5 24.5,187.5C 23.5294,185.517 22.5294,183.517 21.5,181.5C 21.5,180.833 21.8333,180.5 22.5,180.5C 23.1451,181.812 24.1451,182.812 25.5,183.5C 27.8586,180.149 30.1919,176.815 32.5,173.5C 33.1667,173.5 33.5,173.167 33.5,172.5 Z"/></g>
<g><path style="opacity:1" fill="#010101" d="M 147.5,183.5 C 147.5,184.5 147.5,185.5 147.5,186.5C 111.5,186.5 75.5,186.5 39.5,186.5C 39.5,185.5 39.5,184.5 39.5,183.5C 75.5,183.5 111.5,183.5 147.5,183.5 Z"/></g>
<g><path style="opacity:1" fill="#ebe6e5" d="M 21.5,181.5 C 22.5294,183.517 23.5294,185.517 24.5,187.5C 23.1667,187.5 21.8333,187.5 20.5,187.5C 20.2053,185.265 20.5386,183.265 21.5,181.5 Z"/></g>
<g><path style="opacity:1" fill="#f2eeee" d="M 32.5,176.5 C 33.4816,179.962 33.815,183.629 33.5,187.5C 31.5,187.5 29.5,187.5 27.5,187.5C 28.3579,183.452 30.0245,179.785 32.5,176.5 Z"/></g>
<g><path style="opacity:1" fill="#faf6f6" d="M 32.5,173.5 C 30.1919,176.815 27.8586,180.149 25.5,183.5C 24.1451,182.812 23.1451,181.812 22.5,180.5C 20.8516,178.544 20.1849,176.211 20.5,173.5C 24.5,173.5 28.5,173.5 32.5,173.5 Z"/></g>
<g><path style="opacity:1" fill="#80201b" d="M 63.5,168.5 C 75.3167,168.121 86.6501,170.287 97.5,175C 108.536,175.785 119.536,175.452 130.5,174C 134.29,172.354 138.123,170.854 142,169.5C 144.241,169.68 144.741,170.513 143.5,172C 139.456,172.856 135.789,174.522 132.5,177C 121.529,178.376 110.529,178.709 99.5,178C 92.8431,176.007 86.1764,174.007 79.5,172C 67.3094,168.972 56.9761,171.972 48.5,181C 47.552,181.483 46.552,181.649 45.5,181.5C 45.5614,179.408 46.5614,177.908 48.5,177C 53.5625,174.139 58.5625,171.306 63.5,168.5 Z"/></g>
<g><path style="opacity:1" fill="#121212" d="M 39.5,149.5 C 75.8333,149.5 112.167,149.5 148.5,149.5C 148.5,150.833 148.5,152.167 148.5,153.5C 112.167,153.5 75.8333,153.5 39.5,153.5C 39.5,152.167 39.5,150.833 39.5,149.5 Z"/></g>
<g><path style="opacity:1" fill="#6b7c7c" d="M 18.5,138.5 C 24.1667,138.5 29.8333,138.5 35.5,138.5C 35.5,143.833 35.5,149.167 35.5,154.5C 29.8333,154.5 24.1667,154.5 18.5,154.5C 18.5,149.167 18.5,143.833 18.5,138.5 Z"/></g>
<g><path style="opacity:1" fill="#f8f9f9" d="M 20.5,139.5 C 24.8333,139.5 29.1667,139.5 33.5,139.5C 33.5,144.167 33.5,148.833 33.5,153.5C 29.1667,153.5 24.8333,153.5 20.5,153.5C 20.5,148.833 20.5,144.167 20.5,139.5 Z"/></g>
<g><path style="opacity:1" fill="#798484" d="M 33.5,104.5 C 33.5,105.167 33.1667,105.5 32.5,105.5C 28.5,105.5 24.5,105.5 20.5,105.5C 20.1849,108.211 20.8516,110.544 22.5,112.5C 21.8333,112.5 21.5,112.833 21.5,113.5C 20.5489,114.919 20.2155,116.585 20.5,118.5C 21.791,118.737 22.791,118.404 23.5,117.5C 24.4674,118.806 25.8007,119.473 27.5,119.5C 27.2627,118.209 27.596,117.209 28.5,116.5C 29.5521,118.256 31.2188,118.923 33.5,118.5C 33.8128,114.958 33.4794,111.625 32.5,108.5C 33.1667,107.167 34.1667,106.167 35.5,105.5C 35.6658,110.179 35.4992,114.845 35,119.5C 29.6667,120.833 24.3333,120.833 19,119.5C 18.5007,114.511 18.3341,109.511 18.5,104.5C 23.5,104.5 28.5,104.5 33.5,104.5 Z"/></g>
<g><path style="opacity:1" fill="#141313" d="M 129.5,115.5 C 135.833,115.5 142.167,115.5 148.5,115.5C 148.5,116.833 148.5,118.167 148.5,119.5C 141.833,119.5 135.167,119.5 128.5,119.5C 128.232,117.901 128.566,116.568 129.5,115.5 Z"/></g>
<g><path style="opacity:1" fill="#121212" d="M 44.5,115.5 C 44.1667,116.833 43.8333,118.167 43.5,119.5C 42.1667,119.5 40.8333,119.5 39.5,119.5C 39.5,118.167 39.5,116.833 39.5,115.5C 41.1667,115.5 42.8333,115.5 44.5,115.5 Z"/></g>
<g><path style="opacity:1" fill="#a7a7aa" d="M 130.5,113.5 C 136.5,114.167 142.5,114.833 148.5,115.5C 142.167,115.5 135.833,115.5 129.5,115.5C 129.328,114.508 129.662,113.842 130.5,113.5 Z"/></g>
<g><path style="opacity:1" fill="#781211" d="M 35.5,105.5 C 34.1667,106.167 33.1667,107.167 32.5,108.5C 30.6418,110.883 29.3084,113.55 28.5,116.5C 27.596,117.209 27.2627,118.209 27.5,119.5C 25.8007,119.473 24.4674,118.806 23.5,117.5C 23.2671,115.938 22.6005,114.605 21.5,113.5C 21.5,112.833 21.8333,112.5 22.5,112.5C 23.1451,113.812 24.1451,114.812 25.5,115.5C 27.843,112.138 30.1764,108.804 32.5,105.5C 33.1667,105.5 33.5,105.167 33.5,104.5C 35.8375,102.989 36.5042,103.323 35.5,105.5 Z"/></g>
<g><path style="opacity:1" fill="#f7f0f0" d="M 21.5,113.5 C 22.6005,114.605 23.2671,115.938 23.5,117.5C 22.791,118.404 21.791,118.737 20.5,118.5C 20.2155,116.585 20.5489,114.919 21.5,113.5 Z"/></g>
<g><path style="opacity:1" fill="#faf6f6" d="M 32.5,108.5 C 33.4794,111.625 33.8128,114.958 33.5,118.5C 31.2188,118.923 29.5521,118.256 28.5,116.5C 29.3084,113.55 30.6418,110.883 32.5,108.5 Z"/></g>
<g><path style="opacity:1" fill="#f9f6f5" d="M 32.5,105.5 C 30.1764,108.804 27.843,112.138 25.5,115.5C 24.1451,114.812 23.1451,113.812 22.5,112.5C 20.8516,110.544 20.1849,108.211 20.5,105.5C 24.5,105.5 28.5,105.5 32.5,105.5 Z"/></g>
<g><path style="opacity:1" fill="#7a110f" d="M 130.5,113.5 C 129.662,113.842 129.328,114.508 129.5,115.5C 128.566,116.568 128.232,117.901 128.5,119.5C 126.832,124.011 123.832,127.511 119.5,130C 115.556,130.99 111.889,130.49 108.5,128.5C 107.308,130.742 106.308,133.075 105.5,135.5C 113.519,136.725 121.519,136.558 129.5,135C 134.314,132.59 139.314,130.756 144.5,129.5C 144.67,130.822 144.337,131.989 143.5,133C 139.326,134.082 135.326,135.749 131.5,138C 121.337,138.938 111.17,139.772 101,140.5C 93.8055,137.315 86.3055,134.648 78.5,132.5C 78.3766,135.374 77.3766,137.874 75.5,140C 70.6068,140.199 65.6068,140.199 60.5,140C 59.0692,139.535 57.9025,138.701 57,137.5C 48.0252,144.303 42.1919,142.303 39.5,131.5C 40.6376,127.42 41.971,123.42 43.5,119.5C 43.8333,118.167 44.1667,116.833 44.5,115.5C 46.2336,113.387 46.7336,111.054 46,108.5C 50.2663,101.78 56.433,98.2802 64.5,98C 70.4854,97.0755 76.3188,97.5755 82,99.5C 85.1173,97.8315 87.9506,98.1649 90.5,100.5C 91.6074,99.9781 92.7741,99.6448 94,99.5C 98.3251,100.251 102.158,101.917 105.5,104.5C 108.399,104.769 109.899,103.435 110,100.5C 112.667,97.8333 115.333,97.8333 118,100.5C 122.74,98.9097 126.907,99.9097 130.5,103.5C 134.802,100.676 139.469,99.0095 144.5,98.5C 144.5,99.5 144.5,100.5 144.5,101.5C 140.021,102.585 135.688,103.918 131.5,105.5C 131.425,108.206 131.092,110.873 130.5,113.5 Z"/></g>
<g><path style="opacity:1" fill="#dacdcf" d="M 65.5,131.5 C 71.8464,131.328 72.0131,132.328 66,134.5C 62.9925,134.001 62.8259,133.001 65.5,131.5 Z"/></g>
<g><path style="opacity:1" fill="#ddd4d6" d="M 100.5,119.5 C 101.5,119.5 102.5,119.5 103.5,119.5C 101.435,124.696 99.7681,130.03 98.5,135.5C 92.1502,134.495 86.1502,132.495 80.5,129.5C 80.6667,129.167 80.8333,128.833 81,128.5C 90.7069,132.396 97.2069,129.396 100.5,119.5 Z"/></g>
<g><path style="opacity:1" fill="#e5e5e8" d="M 84.5,119.5 C 87.1667,119.5 89.8333,119.5 92.5,119.5C 91.2195,123.396 88.7195,124.396 85,122.5C 84.5172,121.552 84.3505,120.552 84.5,119.5 Z"/></g>
<g><path style="opacity:1" fill="#e5e6e9" d="M 111.5,119.5 C 114.385,119.194 117.052,119.527 119.5,120.5C 117.876,123.428 115.543,124.095 112.5,122.5C 111.873,121.583 111.539,120.583 111.5,119.5 Z"/></g>
<g><path style="opacity:1" fill="#e3e1e4" d="M 68.5,119.5 C 70.8333,119.5 73.1667,119.5 75.5,119.5C 74.7739,122.179 73.9406,124.846 73,127.5C 70.1805,128.839 67.3472,129.172 64.5,128.5C 65.4685,125.231 66.8019,122.231 68.5,119.5 Z"/></g>
<g><path style="opacity:1" fill="#e3e2e5" d="M 51.5,119.5 C 54.1667,119.5 56.8333,119.5 59.5,119.5C 58.4983,123.67 56.9983,127.67 55,131.5C 51.854,134.432 49.354,134.098 47.5,130.5C 48.4466,126.657 49.78,122.991 51.5,119.5 Z"/></g>
<g><path style="opacity:1" fill="#181414" d="M 113.5,115.5 C 116.167,115.5 118.833,115.5 121.5,115.5C 120.976,117.306 120.309,118.972 119.5,120.5C 117.052,119.527 114.385,119.194 111.5,119.5C 111.66,117.847 112.326,116.514 113.5,115.5 Z"/></g>
<g><path style="opacity:1" fill="#141212" d="M 101.5,115.5 C 102.5,115.5 103.5,115.5 104.5,115.5C 104.167,116.833 103.833,118.167 103.5,119.5C 102.5,119.5 101.5,119.5 100.5,119.5C 100.833,118.167 101.167,116.833 101.5,115.5 Z"/></g>
<g><path style="opacity:1" fill="#131212" d="M 85.5,115.5 C 88.1667,115.5 90.8333,115.5 93.5,115.5C 93.1667,116.833 92.8333,118.167 92.5,119.5C 89.8333,119.5 87.1667,119.5 84.5,119.5C 84.4326,118.041 84.7659,116.708 85.5,115.5 Z"/></g>
<g><path style="opacity:1" fill="#141111" d="M 69.5,115.5 C 72.1667,115.5 74.8333,115.5 77.5,115.5C 76.8333,116.833 76.1667,118.167 75.5,119.5C 73.1667,119.5 70.8333,119.5 68.5,119.5C 68.4326,118.041 68.7659,116.708 69.5,115.5 Z"/></g>
<g><path style="opacity:1" fill="#151212" d="M 53.5,115.5 C 56.1667,115.5 58.8333,115.5 61.5,115.5C 61.0113,116.995 60.3446,118.329 59.5,119.5C 56.8333,119.5 54.1667,119.5 51.5,119.5C 51.6596,117.847 52.3263,116.514 53.5,115.5 Z"/></g>
<g><path style="opacity:1" fill="#dbd7d9" d="M 121.5,115.5 C 118.833,115.5 116.167,115.5 113.5,115.5C 113.345,108.675 116.678,106.008 123.5,107.5C 123.416,110.327 122.75,112.994 121.5,115.5 Z"/></g>
<g><path style="opacity:1" fill="#d9d2d5" d="M 104.5,115.5 C 103.5,115.5 102.5,115.5 101.5,115.5C 102.371,112.888 103.037,110.221 103.5,107.5C 104.978,107.238 106.311,107.571 107.5,108.5C 106.339,110.885 105.339,113.219 104.5,115.5 Z"/></g>
<g><path style="opacity:1" fill="#e1e1e3" d="M 93.5,115.5 C 90.8333,115.5 88.1667,115.5 85.5,115.5C 85.7534,110.952 87.92,107.952 92,106.5C 94.5,106.333 95.6667,107.5 95.5,110C 95.2994,112.111 94.6327,113.945 93.5,115.5 Z"/></g>
<g><path style="opacity:1" fill="#dedee1" d="M 61.5,115.5 C 58.8333,115.5 56.1667,115.5 53.5,115.5C 53.4018,109.594 56.0684,106.927 61.5,107.5C 62.6145,110.156 62.6145,112.823 61.5,115.5 Z"/></g>
<g><path style="opacity:1" fill="#dfdddf" d="M 77.5,115.5 C 74.8333,115.5 72.1667,115.5 69.5,115.5C 71.2424,110.607 72.5758,105.607 73.5,100.5C 75.5273,100.338 77.5273,100.505 79.5,101C 80.428,101.388 81.0946,102.055 81.5,103C 80.0596,107.154 78.7263,111.32 77.5,115.5 Z"/></g>
<g><path style="opacity:1" fill="#728181" d="M 28.5,69.5 C 28.5,70.1667 28.5,70.8333 28.5,71.5C 25.8333,71.5 23.1667,71.5 20.5,71.5C 20.5,75.8333 20.5,80.1667 20.5,84.5C 24.8333,84.5 29.1667,84.5 33.5,84.5C 33.5,81.5 33.5,78.5 33.5,75.5C 32.209,75.7373 31.209,75.404 30.5,74.5C 32.2915,74.634 33.9582,74.3007 35.5,73.5C 35.797,77.7675 35.4637,81.9341 34.5,86C 29.5,86.6667 24.5,86.6667 19.5,86C 18.363,80.918 18.1963,75.7513 19,70.5C 22.0567,69.5495 25.2234,69.2161 28.5,69.5 Z"/></g>
<g><path style="opacity:1" fill="#171717" d="M 39.5,81.5 C 75.8333,81.5 112.167,81.5 148.5,81.5C 148.5,82.8333 148.5,84.1667 148.5,85.5C 112.167,85.5 75.8333,85.5 39.5,85.5C 39.5,84.1667 39.5,82.8333 39.5,81.5 Z"/></g>
<g><path style="opacity:1" fill="#8e8f91" d="M 43.5,79.5 C 44.1667,79.5 44.8333,79.5 45.5,79.5C 79.8333,80.1667 114.167,80.8333 148.5,81.5C 112.167,81.5 75.8333,81.5 39.5,81.5C 40.8333,80.8333 42.1667,80.1667 43.5,79.5 Z"/></g>
<g><path style="opacity:1" fill="#fdfcfc" d="M 28.5,71.5 C 28.427,73.0269 29.0937,74.0269 30.5,74.5C 31.209,75.404 32.209,75.7373 33.5,75.5C 33.5,78.5 33.5,81.5 33.5,84.5C 29.1667,84.5 24.8333,84.5 20.5,84.5C 20.5,80.1667 20.5,75.8333 20.5,71.5C 23.1667,71.5 25.8333,71.5 28.5,71.5 Z"/></g>
<g><path style="opacity:1" fill="#151111" d="M 143.5,46.5 C 145.167,46.5 146.833,46.5 148.5,46.5C 148.5,47.8333 148.5,49.1667 148.5,50.5C 145.833,50.5 143.167,50.5 140.5,50.5C 141.5,49.1667 142.5,47.8333 143.5,46.5 Z"/></g>
<g><path style="opacity:1" fill="#f6eeed" d="M 20.5,44.5 C 22.1921,46.2048 23.5254,48.2048 24.5,50.5C 23.1667,50.5 21.8333,50.5 20.5,50.5C 20.5,48.5 20.5,46.5 20.5,44.5 Z"/></g>
<g><path style="opacity:1" fill="#fcfbfb" d="M 29.5,39.5 C 28.9493,42.2668 27.6159,44.6001 25.5,46.5C 24.0603,45.0476 22.3936,44.0476 20.5,43.5C 20.5,41.5 20.5,39.5 20.5,37.5C 23.8555,37.0914 26.8555,37.7581 29.5,39.5 Z"/></g>
<g><path style="opacity:1" fill="#758281" d="M 29.5,35.5 C 29.5,36.8333 29.5,38.1667 29.5,39.5C 26.8555,37.7581 23.8555,37.0914 20.5,37.5C 20.5,39.5 20.5,41.5 20.5,43.5C 20.5,43.8333 20.5,44.1667 20.5,44.5C 20.5,46.5 20.5,48.5 20.5,50.5C 21.8333,50.5 23.1667,50.5 24.5,50.5C 24.5,50.8333 24.5,51.1667 24.5,51.5C 22.5,51.5 20.5,51.5 18.5,51.5C 18.3341,46.4889 18.5007,41.4889 19,36.5C 22.3936,35.5442 25.8936,35.2108 29.5,35.5 Z"/></g>
<g><path style="opacity:1" fill="#79100e" d="M 128.5,46.5 C 128.389,47.1174 128.056,47.6174 127.5,48C 128.667,48.1667 129.833,48.3333 131,48.5C 133.008,48.6932 134.508,48.0265 135.5,46.5C 137.575,43.3544 139.408,40.0211 141,36.5C 143.895,32.3653 146.395,32.532 148.5,37C 147.21,40.4149 145.544,43.5815 143.5,46.5C 142.5,47.8333 141.5,49.1667 140.5,50.5C 141.379,52.228 142.046,54.0614 142.5,56C 140.987,59.7043 139.987,63.5377 139.5,67.5C 140.873,67.6567 142.207,67.49 143.5,67C 145.167,64.6667 146.833,62.3333 148.5,60C 149.793,59.51 151.127,59.3433 152.5,59.5C 151.249,70.9381 145.083,75.6047 134,73.5C 131.017,74.9165 127.85,75.7499 124.5,76C 114.833,76.6667 105.167,76.6667 95.5,76C 91.3463,75.3374 87.3463,74.1707 83.5,72.5C 77.7051,75.5005 72.2051,75.1672 67,71.5C 66.0975,72.7014 64.9308,73.5348 63.5,74C 59.4522,74.4339 55.4522,74.4339 51.5,74C 49.6298,76.0396 47.6298,77.8729 45.5,79.5C 44.8333,79.5 44.1667,79.5 43.5,79.5C 43.5106,77.9826 44.1772,76.8159 45.5,76C 47.5,74.6667 49.5,73.3333 51.5,72C 50.1057,70.2605 49.4391,68.2605 49.5,66C 50.7414,60.6869 52.408,55.5202 54.5,50.5C 54.8333,49.1667 55.1667,47.8333 55.5,46.5C 56.4878,43.9239 57.4878,41.2572 58.5,38.5C 54.6781,39.9906 50.6781,41.1572 46.5,42C 45.7334,43.4705 45.0668,44.9705 44.5,46.5C 44.1667,47.8333 43.8333,49.1667 43.5,50.5C 40.4403,58.0116 37.7737,65.6783 35.5,73.5C 33.9582,74.3007 32.2915,74.634 30.5,74.5C 29.0937,74.0269 28.427,73.0269 28.5,71.5C 28.5,70.8333 28.5,70.1667 28.5,69.5C 31.0632,63.7026 33.0632,57.7026 34.5,51.5C 35.404,50.791 35.7373,49.791 35.5,48.5C 36.6701,46.3498 37.6701,44.0164 38.5,41.5C 37.675,40.6143 36.675,40.281 35.5,40.5C 34.8333,40.5 34.1667,40.5 33.5,40.5C 30.5242,43.0962 28.5242,46.4295 27.5,50.5C 27.5,50.8333 27.5,51.1667 27.5,51.5C 26.5,51.5 25.5,51.5 24.5,51.5C 24.5,51.1667 24.5,50.8333 24.5,50.5C 23.5254,48.2048 22.1921,46.2048 20.5,44.5C 20.5,44.1667 20.5,43.8333 20.5,43.5C 22.3936,44.0476 24.0603,45.0476 25.5,46.5C 27.6159,44.6001 28.9493,42.2668 29.5,39.5C 29.5,38.1667 29.5,36.8333 29.5,35.5C 37.7554,34.6966 46.0888,34.1966 54.5,34C 59.479,30.5933 64.979,28.76 71,28.5C 78.6661,30.0549 86.1661,32.2216 93.5,35C 97.3092,35.5875 100.976,35.0875 104.5,33.5C 108.817,35.3158 113.317,36.3158 118,36.5C 121.859,36.9631 125.192,35.9631 128,33.5C 128.873,33.7355 129.707,34.0688 130.5,34.5C 134.392,32.9709 138.225,31.3042 142,29.5C 143.28,29.6135 144.113,30.2801 144.5,31.5C 140.09,33.3841 135.757,35.5507 131.5,38C 130.202,40.7269 129.202,43.5602 128.5,46.5 Z"/></g>
<g><path style="opacity:1" fill="#ae7677" d="M 104.5,72.5 C 107.167,73.8333 109.833,73.8333 112.5,72.5C 113.043,72.56 113.376,72.8933 113.5,73.5C 110.167,74.8333 106.833,74.8333 103.5,73.5C 103.624,72.8933 103.957,72.56 104.5,72.5 Z"/></g>
<g><path style="opacity:1" fill="#e3e0e3" d="M 124.5,55.5 C 127.2,56.516 129.866,56.516 132.5,55.5C 132.833,56.3333 133.167,57.1667 133.5,58C 131.975,62.3701 131.308,66.8701 131.5,71.5C 127.616,72.7927 123.616,73.4593 119.5,73.5C 121.167,67.5 122.833,61.5 124.5,55.5 Z"/></g>
<g><path style="opacity:1" fill="#e5e6e9" d="M 107.5,51.5 C 111.371,51.185 115.038,51.5184 118.5,52.5C 115.896,58.9785 113.896,65.6451 112.5,72.5C 109.833,73.8333 107.167,73.8333 104.5,72.5C 110.224,69.1934 112.391,64.1934 111,57.5C 109.606,55.6125 108.44,53.6125 107.5,51.5 Z"/></g>
<g><path style="opacity:1" fill="#e0dfe2" d="M 79.5,50.5 C 84.8333,50.5 90.1667,50.5 95.5,50.5C 98.1356,53.3098 100.636,56.3098 103,59.5C 103.962,66.7851 100.795,69.6184 93.5,68C 92.6667,67.1667 91.8333,66.3333 91,65.5C 90.7586,62.7111 90.092,60.0444 89,57.5C 87.0624,56.1398 85.3957,56.4732 84,58.5C 83.0628,61.656 81.5628,64.4894 79.5,67C 77.5273,67.4955 75.5273,67.6621 73.5,67.5C 74.6907,61.4716 76.6907,55.805 79.5,50.5 Z"/></g>
<g><path style="opacity:1" fill="#e1e0e2" d="M 62.5,50.5 C 65.1667,50.5 67.8333,50.5 70.5,50.5C 69.1657,55.6684 67.3323,60.6684 65,65.5C 61.854,68.4317 59.354,68.0984 57.5,64.5C 58.7797,59.6585 60.4464,54.9919 62.5,50.5 Z"/></g>
<g><path style="opacity:1" fill="#a69ea0" d="M 106.5,50.5 C 110.833,50.5 115.167,50.5 119.5,50.5C 119.672,51.4916 119.338,52.1583 118.5,52.5C 115.038,51.5184 111.371,51.185 107.5,51.5C 106.833,51.5 106.5,51.1667 106.5,50.5 Z"/></g>
<g><path style="opacity:1" fill="#4a1b18" d="M 128.5,46.5 C 130.833,46.5 133.167,46.5 135.5,46.5C 134.508,48.0265 133.008,48.6932 131,48.5C 129.833,48.3333 128.667,48.1667 127.5,48C 128.056,47.6174 128.389,47.1174 128.5,46.5 Z"/></g>
<g><path style="opacity:1" fill="#141213" d="M 103.5,46.5 C 109.167,46.5 114.833,46.5 120.5,46.5C 120.167,47.8333 119.833,49.1667 119.5,50.5C 115.167,50.5 110.833,50.5 106.5,50.5C 104.738,49.7377 103.738,48.4044 103.5,46.5 Z"/></g>
<g><path style="opacity:1" fill="#111111" d="M 80.5,46.5 C 84.8333,46.5 89.1667,46.5 93.5,46.5C 94.1667,47.8333 94.8333,49.1667 95.5,50.5C 90.1667,50.5 84.8333,50.5 79.5,50.5C 79.4326,49.0413 79.7659,47.7079 80.5,46.5 Z"/></g>
<g><path style="opacity:1" fill="#161212" d="M 63.5,46.5 C 66.5,46.5 69.5,46.5 72.5,46.5C 72.0113,47.9952 71.3446,49.3285 70.5,50.5C 67.8333,50.5 65.1667,50.5 62.5,50.5C 62.8333,49.1667 63.1667,47.8333 63.5,46.5 Z"/></g>
<g><path style="opacity:1" fill="#131212" d="M 44.5,46.5 C 48.1667,46.5 51.8333,46.5 55.5,46.5C 55.1667,47.8333 54.8333,49.1667 54.5,50.5C 50.8333,50.5 47.1667,50.5 43.5,50.5C 43.8333,49.1667 44.1667,47.8333 44.5,46.5 Z"/></g>
<g><path style="opacity:1" fill="#e4e2e5" d="M 72.5,46.5 C 69.5,46.5 66.5,46.5 63.5,46.5C 64.2504,43.6267 65.9171,41.6267 68.5,40.5C 71.7028,41.1352 73.0362,43.1352 72.5,46.5 Z"/></g>
<g><path style="opacity:1" fill="#e3e1e4" d="M 58.5,38.5 C 57.4878,41.2572 56.4878,43.9239 55.5,46.5C 51.8333,46.5 48.1667,46.5 44.5,46.5C 45.0668,44.9705 45.7334,43.4705 46.5,42C 50.6781,41.1572 54.6781,39.9906 58.5,38.5 Z"/></g>
<g><path style="opacity:1" fill="#e9e7ea" d="M 35.5,40.5 C 36.675,40.281 37.675,40.6143 38.5,41.5C 37.6701,44.0164 36.6701,46.3498 35.5,48.5C 35.5,45.8333 35.5,43.1667 35.5,40.5 Z"/></g>
<g><path style="opacity:1" fill="#6c7b7a" d="M 33.5,40.5 C 34.1667,40.5 34.8333,40.5 35.5,40.5C 35.5,43.1667 35.5,45.8333 35.5,48.5C 35.7373,49.791 35.404,50.791 34.5,51.5C 32.1667,51.5 29.8333,51.5 27.5,51.5C 27.5,51.1667 27.5,50.8333 27.5,50.5C 29.5,50.5 31.5,50.5 33.5,50.5C 33.5,47.1667 33.5,43.8333 33.5,40.5 Z"/></g>
<g><path style="opacity:1" fill="#e3e1e4" d="M 120.5,46.5 C 114.833,46.5 109.167,46.5 103.5,46.5C 101.353,45.0679 101.02,43.2345 102.5,41C 103.833,40.3333 105.167,40.3333 106.5,41C 110.7,46.112 113.367,45.612 114.5,39.5C 117.167,39.5 119.833,39.5 122.5,39.5C 122.233,41.9653 121.566,44.2986 120.5,46.5 Z"/></g>
<g><path style="opacity:1" fill="#f9f4f4" d="M 33.5,40.5 C 33.5,43.8333 33.5,47.1667 33.5,50.5C 31.5,50.5 29.5,50.5 27.5,50.5C 28.5242,46.4295 30.5242,43.0962 33.5,40.5 Z"/></g>
<g><path style="opacity:1" fill="#e5e4e7" d="M 93.5,46.5 C 89.1667,46.5 84.8333,46.5 80.5,46.5C 81.9099,42.6033 82.9099,38.6033 83.5,34.5C 87.5442,35.6259 91.5442,36.9592 95.5,38.5C 93.7711,40.8511 93.1044,43.5178 93.5,46.5 Z"/></g>
<g><path style="opacity:1" fill="#ded6d9" d="M 58.5,38.5 C 58.67,37.1779 58.3366,36.0113 57.5,35C 64.5041,31.2493 71.8374,30.5826 79.5,33C 77.99,33.8498 76.49,34.6831 75,35.5C 68.7472,32.3477 63.2472,33.3477 58.5,38.5 Z"/></g>
<g><path style="opacity:1" fill="#edf6f9" d="M 154.5,15.5 C 154.5,15.8333 154.5,16.1667 154.5,16.5C 107.833,16.5 61.1667,16.5 14.5,16.5C 14.5,79.5 14.5,142.5 14.5,205.5C 14.1667,205.5 13.8333,205.5 13.5,205.5C 13.5,142.167 13.5,78.8333 13.5,15.5C 60.5,15.5 107.5,15.5 154.5,15.5 Z"/></g>
<g><path style="opacity:1" fill="#bd9496" d="M 154.5,15.5 C 107.5,15.5 60.5,15.5 13.5,15.5C 13.5,78.8333 13.5,142.167 13.5,205.5C 12.5009,142.002 12.1675,78.3355 12.5,14.5C 60.0029,14.1679 107.336,14.5012 154.5,15.5 Z"/></g>
<g><path style="opacity:1" fill="#c28f8f" d="M 113.5,3.5 C 114.468,5.60737 114.802,7.9407 114.5,10.5C 121.167,10.5 127.833,10.5 134.5,10.5C 134.205,8.26465 134.539,6.26465 135.5,4.5C 135.5,6.83333 135.5,9.16667 135.5,11.5C 128.167,11.5 120.833,11.5 113.5,11.5C 113.5,8.83333 113.5,6.16667 113.5,3.5 Z"/></g>
<g><path style="opacity:1" fill="#bb8383" d="M 108.5,3.5 C 108.5,6.16667 108.5,8.83333 108.5,11.5C 100.981,11.825 93.6476,11.4916 86.5,10.5C 93.5,10.5 100.5,10.5 107.5,10.5C 107.198,7.9407 107.532,5.60737 108.5,3.5 Z"/></g>
<g><path style="opacity:1" fill="#b98080" d="M 81.5,3.5 C 81.5,6.16667 81.5,8.83333 81.5,11.5C 74.3134,11.8245 67.3134,11.4912 60.5,10.5C 67.1667,10.5 73.8333,10.5 80.5,10.5C 80.1984,7.9407 80.5318,5.60737 81.5,3.5 Z"/></g>
<g><path style="opacity:1" fill="#bd8787" d="M 54.5,4.5 C 54.5,6.83333 54.5,9.16667 54.5,11.5C 47.3134,11.8245 40.3134,11.4912 33.5,10.5C 40.1667,10.5 46.8333,10.5 53.5,10.5C 53.2053,8.26465 53.5386,6.26465 54.5,4.5 Z"/></g>
<g><path style="opacity:1" fill="#d9b7b6" d="M 137.5,2.5 C 139.596,5.19134 139.93,8.19134 138.5,11.5C 137.516,8.57186 137.183,5.57186 137.5,2.5 Z"/></g>
<g><path style="opacity:1" fill="#b47574" d="M 111.5,4.5 C 112.797,6.69345 112.797,9.02678 111.5,11.5C 110.893,11.3764 110.56,11.0431 110.5,10.5C 111.461,8.73535 111.795,6.73535 111.5,4.5 Z"/></g>
<g><path style="opacity:1" fill="#d7b3b2" d="M 56.5,2.5 C 58.5962,5.19134 58.9295,8.19134 57.5,11.5C 56.5159,8.57186 56.1826,5.57186 56.5,2.5 Z"/></g>
<g><path style="opacity:1" fill="#ead8d7" d="M 29.5,2.5 C 30.7479,3.3339 31.4146,4.66723 31.5,6.5C 31.1667,7.83333 30.8333,9.16667 30.5,10.5C 29.52,7.91355 29.1866,5.24688 29.5,2.5 Z"/></g>
<g><path style="opacity:1" fill="#d9b8b8" d="M 83.5,2.5 C 84.8032,5.3553 84.8032,8.3553 83.5,11.5C 82.2588,8.46304 82.2588,5.46304 83.5,2.5 Z"/></g>
<g><path style="opacity:1" fill="#e9d4d4" d="M 111.5,4.5 C 111.795,6.73535 111.461,8.73535 110.5,10.5C 109.198,7.89342 109.364,5.22676 111,2.5C 111.464,3.09442 111.631,3.76109 111.5,4.5 Z"/></g>
<g><path style="opacity:1" fill="#fdfdfd" d="M 111.5,-0.5 C 120.167,-0.5 128.833,-0.5 137.5,-0.5C 136.058,0.819534 135.392,2.4862 135.5,4.5C 134.539,6.26465 134.205,8.26465 134.5,10.5C 127.833,10.5 121.167,10.5 114.5,10.5C 114.802,7.9407 114.468,5.60737 113.5,3.5C 113.267,1.93819 112.6,0.60486 111.5,-0.5 Z"/></g>
<g><path style="opacity:1" fill="#fdfcfc" d="M 84.5,-0.5 C 93.1667,-0.5 101.833,-0.5 110.5,-0.5C 109.4,0.60486 108.733,1.93819 108.5,3.5C 107.532,5.60737 107.198,7.9407 107.5,10.5C 100.5,10.5 93.5,10.5 86.5,10.5C 86.9903,6.51282 86.3236,2.84616 84.5,-0.5 Z"/></g>
<g><path style="opacity:1" fill="#fcf9f9" d="M 58.5,-0.5 C 66.5,-0.5 74.5,-0.5 82.5,-0.5C 82.1667,0.833333 81.8333,2.16667 81.5,3.5C 80.5318,5.60737 80.1984,7.9407 80.5,10.5C 73.8333,10.5 67.1667,10.5 60.5,10.5C 59.6931,6.97868 59.0264,3.31201 58.5,-0.5 Z"/></g>
<g><path style="opacity:1" fill="#fefdfd" d="M 31.5,-0.5 C 39.8333,-0.5 48.1667,-0.5 56.5,-0.5C 55.0582,0.819534 54.3915,2.4862 54.5,4.5C 53.5386,6.26465 53.2053,8.26465 53.5,10.5C 46.8333,10.5 40.1667,10.5 33.5,10.5C 33.8887,6.58626 33.2221,2.91959 31.5,-0.5 Z"/></g>
</svg>
